<?xml version="1.0" encoding="utf-8"?>
<!-- Generator: Adobe Illustrator 25.2.1, SVG Export Plug-In . SVG Version: 6.00 Build 0)  -->
<svg version="1.1" id="Calque_1" xmlns="http://www.w3.org/2000/svg" xmlns:xlink="http://www.w3.org/1999/xlink" x="0px" y="0px"
	 viewBox="0 0 174.2 161.6" style="enable-background:new 0 0 174.2 161.6;" xml:space="preserve">
<style type="text/css">
	.st0{fill:#EE760F;}
	.st1{fill:#0B84FF;}
</style>
<g id="Calque_2_1_">
	<g id="Couleurs">
		<g id="BLOC">
			<g id="Sigle">
				<path class="st0" d="M87.1,104.7c-0.2,0-0.3-0.1-0.5-0.1l-44-25.4c-0.3-0.2-0.5-0.5-0.5-0.9V27.4c0-0.4,0.2-0.7,0.5-0.9l44-25.4
					C86.7,1,86.9,1,87.1,1c0.2,0,0.3,0,0.5,0.1l44,25.4c0.3,0.2,0.5,0.5,0.5,0.9v50.8c0,0.4-0.2,0.7-0.5,0.9l-44,25.4
					C87.4,104.6,87.2,104.7,87.1,104.7z M87.1,100.9l41.6-24V28.8l-41.7-24l-41.7,24v48.1L87.1,100.9z"/>
				<path class="st0" d="M87.1,2l44,25.4v50.8l-0.4,0.2l-43.6,25.2L43,78.3V27.4l0.3-0.2L87.1,2 M87.1,102.1l42.6-24.6V28.2
					L87.1,3.6L44.4,28.2v49.2L87.1,102.1 M87.1,0c-0.4,0-0.7,0.1-1,0.3L42.4,25.5L42,25.7c-0.6,0.4-1,1-1,1.7v50.8
					c0,0.7,0.4,1.4,1,1.7l44,25.4c0.3,0.2,0.6,0.3,1,0.3c0.4,0,0.7-0.1,1-0.3l43.7-25.2L132,80c0.6-0.4,1-1,1-1.7V27.4
					c0-0.7-0.4-1.4-1-1.7l-44-25.4C87.8,0.1,87.4,0,87.1,0z M46.4,29.4L87.1,5.9l40.7,23.5v46.9L87.1,99.8L46.4,76.3V29.4z"/>
				<polygon class="st1" points="87.1,10.9 55.6,29 66.2,35.3 87.1,23.3 112.9,37.5 112.9,55.6 123.4,49.6 123.4,31.9 				"/>
				<polygon class="st1" points="86.4,34.9 76,40.9 107.3,58.8 112.1,49.5 				"/>
				<polygon class="st1" points="107.9,70.4 87,82.4 66.1,70.5 66.1,58.5 68.1,59.6 68.1,59.6 87,70.4 97.5,64.3 66.8,46.8 
					66.8,46.8 66.1,46.4 55.7,52.4 55.7,76.8 87,94.8 118.5,76.7 				"/>
				<polygon class="st1" points="107.3,58.8 113.1,55.5 113.1,50.2 86.4,34.9 				"/>
				<circle class="st0" cx="58.1" cy="40.8" r="5.2"/>
			</g>
			<g id="lettrage">
				<path class="st1" d="M6.6,116.7H0v-6h6.6V116.7z M6.6,149.8H0v-27.4h6.6V149.8z"/>
				<path class="st1" d="M43.5,149.7H37v-15.2c0-0.8-0.1-1.6-0.4-2.3c-0.3-0.7-0.7-1.3-1.2-1.8c-0.5-0.5-1.1-0.9-1.8-1.1
					c-0.7-0.3-1.5-0.4-2.2-0.4H19.7v20.9h-6.6v-24.2c0-0.4,0.1-0.9,0.2-1.3c0.2-0.4,0.4-0.7,0.7-1c0.3-0.3,0.7-0.5,1.1-0.7
					c0.4-0.2,0.8-0.3,1.3-0.2h14.9c1.9,0,3.7,0.4,5.4,1.2c0.9,0.4,1.8,0.9,2.6,1.5c0.8,0.7,1.6,1.4,2.2,2.3c0.7,1,1.2,2,1.5,3.2
					c0.4,1.3,0.6,2.6,0.5,4V149.7z"/>
				<path class="st1" d="M105.1,149.7H93.2c-1,0-2-0.2-3-0.5c-1.1-0.3-2.1-0.9-3-1.6c-1-0.8-1.8-1.8-2.3-2.9c-0.6-1.3-1-2.8-0.9-4.3
					v-18.2h6.6v18.2c-0.1,0.7,0.2,1.5,0.7,2c0.5,0.5,1.3,0.7,2,0.7h11.8V149.7z M114.3,152.4c0,1-0.1,2.1-0.4,3.1
					c-0.3,0.8-0.6,1.6-1.2,2.4c-0.5,0.7-1,1.3-1.7,1.8c-0.6,0.5-1.3,0.9-2,1.2c-0.7,0.3-1.4,0.5-2.1,0.7c-0.7,0.1-1.3,0.2-2,0.2
					H93.2V155h11.9c0.7,0.1,1.5-0.2,2-0.7c0.5-0.6,0.7-1.3,0.7-2v-30h6.6L114.3,152.4z"/>
				<path class="st1" d="M77.3,140.5c0,1-0.1,2.1-0.4,3.1c-0.3,0.9-0.6,1.7-1.1,2.4c-0.5,0.7-1,1.3-1.7,1.8c-0.6,0.5-1.3,0.9-2,1.2
					c-0.7,0.3-1.4,0.5-2.1,0.7c-0.7,0.1-1.3,0.2-2,0.2H50.2v-6.6H68c0.7,0,1.5-0.2,2-0.7c0.5-0.5,0.7-1.3,0.7-2
					c0.1-1.3-0.8-2.5-2.2-2.6c-0.2,0-0.3,0-0.5,0H57.8c-1.3,0-2.5-0.2-3.7-0.8c-0.9-0.5-1.8-1.1-2.5-1.9c-0.6-0.7-1.1-1.6-1.4-2.5
					c-0.3-0.8-0.4-1.6-0.4-2.5c0-1.3,0.2-2.6,0.8-3.7c0.5-1,1.2-1.8,2-2.4c0.8-0.6,1.6-1.1,2.6-1.4c0.8-0.3,1.7-0.4,2.6-0.4H74v6.6
					H57.9c-0.3,0-0.5,0-0.8,0.1c-0.2,0.1-0.3,0.2-0.4,0.3c-0.1,0.1-0.2,0.3-0.2,0.4c0,0.1,0,0.3,0,0.4c0,0.2,0.1,0.4,0.2,0.6
					c0.1,0.1,0.2,0.3,0.3,0.3c0.1,0.1,0.3,0.1,0.4,0.1h0.5H68c1.5,0,3,0.3,4.3,0.9c1.1,0.5,2.1,1.3,2.9,2.3c0.7,0.9,1.3,1.9,1.6,3
					C77.1,138.4,77.3,139.4,77.3,140.5z"/>
				<path class="st0" d="M121.6,149.7c-0.3-0.6-0.4-1.2-0.5-1.9c-0.1-0.7-0.1-1.5-0.1-2.2c0-1.5,0.3-2.9,0.8-4.3
					c0.6-1.3,1.4-2.5,2.6-3.5c1.4-1.1,2.9-1.9,4.6-2.3l1.5-0.4c0.8-0.2,1.5-0.7,2.1-1.3c0.4-0.6,0.6-1.3,0.6-2c0-0.9-0.3-1.7-1-2.3
					c-1-0.7-2.3-1-3.5-0.9c-0.8,0-1.5,0.1-2.3,0.2c-0.7,0.1-1.4,0.3-2.1,0.5c-0.5,0.1-1,0.3-1.4,0.6h-0.4v-6.3c1-0.5,2.1-0.8,3.2-1
					c1.4-0.3,2.8-0.4,4.2-0.4c2.1-0.1,4.3,0.3,6.2,1.2c1.5,0.7,2.7,1.9,3.6,3.4c0.8,1.4,1.2,3,1.1,4.7c0.1,2-0.6,4-1.9,5.6
					c-1.7,1.6-3.7,2.8-6,3.4l-1.2,0.4c-1,0.2-1.8,0.8-2.4,1.5c-0.5,0.7-0.8,1.7-0.8,2.6c0,0.1,0,0.2,0,0.3c0,0.2,0,0.4,0,0.6l-3-2.6
					h15.4v6.3L121.6,149.7z"/>
				<path class="st0" d="M174.2,140.4c0,1-0.1,2.1-0.4,3.1c-0.3,0.8-0.6,1.6-1.1,2.4c-0.5,0.7-1,1.3-1.6,1.8
					c-1.2,0.9-2.6,1.6-4.1,1.9c-0.7,0.1-1.3,0.2-2,0.2h-17.9v-6.6h17.8c0.7,0,1.4-0.2,2-0.7c0.5-0.5,0.7-1.3,0.7-2
					c0.1-1.3-0.9-2.5-2.2-2.6c-0.1,0-0.3,0-0.4,0h-10.3c-1.3,0-2.6-0.2-3.7-0.8c-1-0.5-1.8-1.1-2.5-1.9c-0.6-0.7-1.1-1.6-1.4-2.5
					c-0.3-0.8-0.4-1.6-0.4-2.5c0-1.3,0.2-2.6,0.8-3.7c0.5-1,1.2-1.8,2-2.4c0.8-0.6,1.6-1.1,2.6-1.3c0.8-0.3,1.7-0.4,2.6-0.4H171v6.6
					h-16.2c-0.3,0-0.5,0-0.8,0.1c-0.2,0.1-0.3,0.2-0.4,0.3c-0.1,0.1-0.1,0.3-0.2,0.4c0,0.1,0,0.3,0,0.4c0,0.2,0.1,0.4,0.1,0.6
					c0.1,0.1,0.2,0.2,0.3,0.3c0.1,0.1,0.3,0.1,0.4,0.1H165c1.5,0,3,0.3,4.3,0.9c1.1,0.5,2.1,1.3,2.9,2.3c0.7,0.9,1.3,1.9,1.6,3
					C174.1,138.4,174.2,139.4,174.2,140.4z"/>
			</g>
		</g>
	</g>
</g>
</svg>
