<svg xmlns="http://www.w3.org/2000/svg" viewBox="0 0 241.49 52.84"><defs><style>.cls-1{fill:#ee740f;}.cls-2{fill:#0B84FF;}</style></defs><g id="Calque_2" data-name="Calque 2"><g id="Couleurs"><g id="IN_LINE" data-name="IN LINE"><g id="Sigle"><path class="cls-1" d="M23,52.34a.47.47,0,0,1-.25-.07L.75,39.56a.5.5,0,0,1-.25-.43V13.71a.5.5,0,0,1,.25-.43L22.76.57A.47.47,0,0,1,23,.5a.43.43,0,0,1,.25.07l22,12.71a.5.5,0,0,1,.25.43V39.13a.5.5,0,0,1-.25.43l-22,12.71A.43.43,0,0,1,23,52.34Zm0-1.87,20.83-12v-24L23,2.37l-20.82,12v24Z"/><path class="cls-1" d="M23,1,45,13.71V39.13l-.18.1L23,51.84,1,39.13V13.71l.17-.1L23,1m0,50L44.34,38.73V14.11L23,1.79,1.69,14.11V38.73L23,51M23,0a1,1,0,0,0-.5.13L.67,12.74l-.17.1a1,1,0,0,0-.5.87V39.13A1,1,0,0,0,.5,40l22,12.71a1,1,0,0,0,.5.14,1,1,0,0,0,.5-.14L45.35,40.09l.18-.1a1,1,0,0,0,.5-.86V13.71a1,1,0,0,0-.5-.87L23.51.13A1,1,0,0,0,23,0ZM2.69,14.68,23,3,43.34,14.68V38.15L23,49.89,2.69,38.15V14.68Z"/><polygon class="cls-2" points="23.01 5.45 7.31 14.52 12.56 17.63 23.01 11.64 35.91 18.76 35.93 27.81 41.17 24.79 41.17 15.94 23.01 5.45"/><polygon class="cls-2" points="22.69 17.43 17.47 20.47 33.14 29.42 35.51 24.77 22.69 17.43"/><polygon class="cls-2" points="33.46 35.19 23 41.18 12.55 35.26 12.55 29.23 13.55 29.8 13.55 29.8 23 35.2 28.22 32.16 12.87 23.39 12.87 23.39 12.55 23.21 7.33 26.22 7.33 38.38 23 47.42 38.75 38.34 33.46 35.19"/><polygon class="cls-2" points="33.14 29.42 36.05 27.74 36.05 25.09 22.69 17.43 33.14 29.42"/><circle class="cls-1" cx="8.54" cy="20.41" r="2.62"/></g><g id="lettrage"><path class="cls-2" d="M73.85,7.66h-6.6v-6h6.6Zm0,33.09h-6.6V13.3h6.6Z"/><path class="cls-2" d="M110.81,40.71H104.2V25.47a5.72,5.72,0,0,0-.44-2.32,5.41,5.41,0,0,0-1.21-1.77,5.25,5.25,0,0,0-1.79-1.13,6.17,6.17,0,0,0-2.22-.39H87V40.71h-6.6V16.53a3.18,3.18,0,0,1,1-2.32,3.36,3.36,0,0,1,2.36-1H98.59a13,13,0,0,1,2.63.28,11.88,11.88,0,0,1,2.74.9A13.07,13.07,0,0,1,106.55,16a11,11,0,0,1,2.19,2.31,11.43,11.43,0,0,1,1.51,3.14,13.4,13.4,0,0,1,.56,4Z"/><path class="cls-2" d="M172.35,40.71H160.44a10.74,10.74,0,0,1-3-.49,9,9,0,0,1-3-1.58,8.68,8.68,0,0,1-2.31-2.87,9.33,9.33,0,0,1-.92-4.33V13.26h6.6V31.44a2.68,2.68,0,0,0,.69,2,2.74,2.74,0,0,0,2,.68h11.86Zm9.24,2.64a10.06,10.06,0,0,1-.43,3.06A8.77,8.77,0,0,1,180,48.79a7.45,7.45,0,0,1-1.65,1.75,9,9,0,0,1-2,1.18,10.44,10.44,0,0,1-2.07.68,10.12,10.12,0,0,1-2,.21H160.44V46h11.91a2.65,2.65,0,0,0,2-.68,2.75,2.75,0,0,0,.66-2V13.26h6.6Z"/><path class="cls-2" d="M144.56,31.44a10.38,10.38,0,0,1-.43,3.06A8.77,8.77,0,0,1,143,36.88a7.7,7.7,0,0,1-1.65,1.76,9.7,9.7,0,0,1-2,1.18,10.08,10.08,0,0,1-2.08.67,10.18,10.18,0,0,1-2,.22H117.41V34.1h17.83a2.74,2.74,0,0,0,2-.68,2.68,2.68,0,0,0,.69-2,2.42,2.42,0,0,0-2.67-2.64H125.06a8.34,8.34,0,0,1-3.71-.76,7.67,7.67,0,0,1-2.48-1.91,7.32,7.32,0,0,1-1.37-2.46,8.14,8.14,0,0,1-.42-2.46,8,8,0,0,1,.79-3.72,7.47,7.47,0,0,1,2-2.45,7.77,7.77,0,0,1,2.59-1.36,9.09,9.09,0,0,1,2.62-.42h16.22v6.6H125.11a2.4,2.4,0,0,0-.8.11.91.91,0,0,0-.43.31.83.83,0,0,0-.17.4,3.1,3.1,0,0,0,0,.42,1.37,1.37,0,0,0,.15.64.79.79,0,0,0,.32.33,1,1,0,0,0,.43.11l.47,0h10.23a9.38,9.38,0,0,1,4.32.91,8.44,8.44,0,0,1,2.86,2.3,9,9,0,0,1,1.59,3A10.41,10.41,0,0,1,144.56,31.44Z"/><path class="cls-1" d="M188.83,40.7a5.34,5.34,0,0,1-.47-1.85,19.41,19.41,0,0,1-.13-2.2,11.32,11.32,0,0,1,.8-4.31,8.92,8.92,0,0,1,2.55-3.46,12.7,12.7,0,0,1,4.59-2.35l1.5-.45a3.89,3.89,0,0,0,2.08-1.29,3.25,3.25,0,0,0,.62-2,3,3,0,0,0-1-2.32,5.28,5.28,0,0,0-3.49-.9,12.2,12.2,0,0,0-2.3.23,17.1,17.1,0,0,0-2.14.54,8,8,0,0,0-1.4.58h-.45v-6.3a12.77,12.77,0,0,1,3.16-.95,21.54,21.54,0,0,1,4.18-.4,13.47,13.47,0,0,1,6.24,1.26,8.15,8.15,0,0,1,3.56,3.37,9.62,9.62,0,0,1,1.15,4.67A8,8,0,0,1,206,28.14a13.71,13.71,0,0,1-6,3.42l-1.2.37a4.53,4.53,0,0,0-2.42,1.52,4.19,4.19,0,0,0-.76,2.57c0,.1,0,.21,0,.33a4.73,4.73,0,0,1,0,.6l-3-2.55H208v6.3Z"/><path class="cls-1" d="M241.49,31.4a10,10,0,0,1-.43,3.06,8.68,8.68,0,0,1-1.14,2.39,7.45,7.45,0,0,1-1.65,1.75,9.1,9.1,0,0,1-2,1.18,10,10,0,0,1-4.07.89H214.35v-6.6h17.83a2.8,2.8,0,0,0,2-.68,2.73,2.73,0,0,0,.68-2,2.41,2.41,0,0,0-2.66-2.64H222a8.16,8.16,0,0,1-3.7-.76,7.65,7.65,0,0,1-2.48-1.9,7.32,7.32,0,0,1-1.37-2.46,8.2,8.2,0,0,1-.42-2.47,7.93,7.93,0,0,1,.79-3.72,7.42,7.42,0,0,1,2-2.45,8,8,0,0,1,2.59-1.36,9,9,0,0,1,2.61-.41h16.23v6.6H222.05a2.16,2.16,0,0,0-.8.11,1,1,0,0,0-.44.31.87.87,0,0,0-.16.4,3.19,3.19,0,0,0,0,.42,1.54,1.54,0,0,0,.16.64.83.83,0,0,0,.31.33,1.19,1.19,0,0,0,.44.11h10.7a9.31,9.31,0,0,1,4.31.92,8.48,8.48,0,0,1,2.87,2.29,9.19,9.19,0,0,1,1.59,3A10.43,10.43,0,0,1,241.49,31.4Z"/></g></g></g></g></svg>