<?xml version="1.0" standalone="no"?>
<!DOCTYPE svg PUBLIC "-//W3C//DTD SVG 20010904//EN"
 "http://www.w3.org/TR/2001/REC-SVG-20010904/DTD/svg10.dtd">
<svg version="1.0" xmlns="http://www.w3.org/2000/svg"
 width="592.000000pt" height="592.000000pt" viewBox="0 0 592.000000 592.000000"
 preserveAspectRatio="xMidYMid meet">
<metadata>
Created by potrace 1.11, written by Peter Selinger 2001-2013
</metadata>
<g transform="translate(0.000000,592.000000) scale(0.100000,-0.100000)"
fill="#000000" stroke="none">
<path d="M1680 5180 l-1275 -738 0 -1482 0 -1482 1277 -738 1278 -739 1278
739 1277 738 0 1482 0 1482 -1278 739 c-703 407 -1279 739 -1280 738 -1 0
-576 -333 -1277 -739z m2524 -70 l1236 -714 0 -1436 0 -1435 -1240 -717 -1240
-717 -1240 717 -1240 717 0 1435 0 1436 1238 716 c680 394 1240 716 1244 715
3 -1 562 -324 1242 -717z"/>
<path d="M1923 5127 c-563 -325 -1023 -594 -1023 -597 0 -3 154 -97 341 -208
l342 -202 688 395 689 395 837 -461 c461 -254 844 -467 851 -473 9 -9 12 -101
10 -418 l-3 -407 -855 491 c-470 270 -864 492 -875 494 -22 4 -681 -376 -679
-391 1 -8 1929 -1116 2020 -1162 l32 -16 526 303 526 303 0 587 0 586 -422
244 c-233 134 -768 443 -1190 687 -422 244 -773 443 -780 442 -7 0 -473 -266
-1035 -592z"/>
<path d="M977 4090 c-101 -26 -197 -105 -240 -198 -33 -72 -31 -207 4 -282 33
-70 99 -136 169 -169 47 -22 69 -26 145 -26 108 0 159 20 233 89 72 68 106
148 106 251 0 93 -27 165 -89 234 -74 81 -222 127 -328 101z"/>
<path d="M1248 3191 c-181 -104 -335 -194 -343 -201 -13 -11 -15 -113 -15
-809 l0 -796 1002 -580 c550 -319 1016 -588 1035 -598 l33 -17 1008 581 c554
319 1020 589 1036 599 l29 18 -348 207 c-340 203 -349 207 -374 193 -254 -147
-1341 -768 -1348 -770 -5 -2 -318 173 -696 387 l-687 390 0 393 c0 219 4 392
9 392 5 0 305 -169 667 -377 363 -207 670 -381 684 -386 23 -9 63 12 355 182
182 106 333 195 337 199 7 7 -2017 1173 -2046 1180 -6 1 -158 -83 -338 -187z"/>
</g>
</svg>
